<svg id="visual" viewBox="0 0 960 540" width="960" height="540" xmlns="http://www.w3.org/2000/svg" xmlns:xlink="http://www.w3.org/1999/xlink" version="1.1"><rect x="0" y="0" width="960" height="540" fill="#f7f7f7"></rect><path d="M0 124L11.5 139C23 154 46 184 68.8 185.5C91.7 187 114.3 160 137.2 144.3C160 128.7 183 124.3 205.8 124.3C228.7 124.3 251.3 128.7 274.2 132.7C297 136.7 320 140.3 342.8 141C365.7 141.7 388.3 139.3 411.2 150.3C434 161.3 457 185.7 480 186.7C503 187.7 526 165.3 548.8 156.8C571.7 148.3 594.3 153.7 617.2 160.3C640 167 663 175 685.8 175C708.7 175 731.3 167 754.2 161.5C777 156 800 153 822.8 152.3C845.7 151.7 868.3 153.3 891.2 159.5C914 165.7 937 176.3 948.5 181.7L960 187L960 0L948.5 0C937 0 914 0 891.2 0C868.3 0 845.7 0 822.8 0C800 0 777 0 754.2 0C731.3 0 708.7 0 685.8 0C663 0 640 0 617.2 0C594.3 0 571.7 0 548.8 0C526 0 503 0 480 0C457 0 434 0 411.2 0C388.3 0 365.7 0 342.8 0C320 0 297 0 274.2 0C251.3 0 228.7 0 205.8 0C183 0 160 0 137.2 0C114.3 0 91.7 0 68.8 0C46 0 23 0 11.5 0L0 0Z" fill="#ffffff"></path><path d="M0 156L11.5 150.5C23 145 46 134 68.8 129.2C91.7 124.3 114.3 125.7 137.2 117.2C160 108.7 183 90.3 205.8 85.2C228.7 80 251.3 88 274.2 98.7C297 109.3 320 122.7 342.8 123.5C365.7 124.3 388.3 112.7 411.2 104.7C434 96.7 457 92.3 480 98.8C503 105.3 526 122.7 548.8 128.2C571.7 133.7 594.3 127.3 617.2 129.3C640 131.3 663 141.7 685.8 147.2C708.7 152.7 731.3 153.3 754.2 140.2C777 127 800 100 822.8 100.3C845.7 100.7 868.3 128.3 891.2 138.7C914 149 937 142 948.5 138.5L960 135L960 0L948.5 0C937 0 914 0 891.2 0C868.3 0 845.7 0 822.8 0C800 0 777 0 754.2 0C731.3 0 708.7 0 685.8 0C663 0 640 0 617.2 0C594.3 0 571.7 0 548.8 0C526 0 503 0 480 0C457 0 434 0 411.2 0C388.3 0 365.7 0 342.8 0C320 0 297 0 274.2 0C251.3 0 228.7 0 205.8 0C183 0 160 0 137.2 0C114.3 0 91.7 0 68.8 0C46 0 23 0 11.5 0L0 0Z" fill="#b3ceff"></path><path d="M0 84L11.5 84.3C23 84.7 46 85.3 68.8 78.7C91.7 72 114.3 58 137.2 54.7C160 51.3 183 58.7 205.8 67.5C228.7 76.3 251.3 86.7 274.2 81.5C297 76.3 320 55.7 342.8 50.3C365.7 45 388.3 55 411.2 58.2C434 61.3 457 57.7 480 62.5C503 67.3 526 80.7 548.8 87.5C571.7 94.3 594.3 94.7 617.2 85.5C640 76.3 663 57.7 685.8 53.3C708.7 49 731.3 59 754.2 68.2C777 77.3 800 85.7 822.8 84.5C845.7 83.3 868.3 72.7 891.2 68.2C914 63.7 937 65.3 948.5 66.2L960 67L960 0L948.5 0C937 0 914 0 891.2 0C868.3 0 845.7 0 822.8 0C800 0 777 0 754.2 0C731.3 0 708.7 0 685.8 0C663 0 640 0 617.2 0C594.3 0 571.7 0 548.8 0C526 0 503 0 480 0C457 0 434 0 411.2 0C388.3 0 365.7 0 342.8 0C320 0 297 0 274.2 0C251.3 0 228.7 0 205.8 0C183 0 160 0 137.2 0C114.3 0 91.7 0 68.8 0C46 0 23 0 11.5 0L0 0Z" fill="#49a0fd"></path></svg>