<svg id="visual" viewBox="0 0 960 540" width="960" height="540" xmlns="http://www.w3.org/2000/svg" xmlns:xlink="http://www.w3.org/1999/xlink" version="1.1"><rect x="0" y="0" width="960" height="540" fill="#ffffff"></rect><path d="M0 172L20 164C40 156 80 140 120 148.5C160 157 200 190 240 206.3C280 222.7 320 222.3 360 203.3C400 184.3 440 146.7 480 146.3C520 146 560 183 600 196.7C640 210.3 680 200.7 720 199.2C760 197.7 800 204.3 840 211.7C880 219 920 227 940 231L960 235L960 0L940 0C920 0 880 0 840 0C800 0 760 0 720 0C680 0 640 0 600 0C560 0 520 0 480 0C440 0 400 0 360 0C320 0 280 0 240 0C200 0 160 0 120 0C80 0 40 0 20 0L0 0Z" fill="#f7f7f7"></path><path d="M0 156L20 141.8C40 127.7 80 99.3 120 98.2C160 97 200 123 240 125.8C280 128.7 320 108.3 360 92.8C400 77.3 440 66.7 480 80.2C520 93.7 560 131.3 600 152C640 172.7 680 176.3 720 173.8C760 171.3 800 162.7 840 155.2C880 147.7 920 141.3 940 138.2L960 135L960 0L940 0C920 0 880 0 840 0C800 0 760 0 720 0C680 0 640 0 600 0C560 0 520 0 480 0C440 0 400 0 360 0C320 0 280 0 240 0C200 0 160 0 120 0C80 0 40 0 20 0L0 0Z" fill="#a9c1dc"></path><path d="M0 61L20 69.7C40 78.3 80 95.7 120 95C160 94.3 200 75.7 240 69.5C280 63.3 320 69.7 360 78.8C400 88 440 100 480 88.3C520 76.7 560 41.3 600 40.3C640 39.3 680 72.7 720 73.3C760 74 800 42 840 28.8C880 15.7 920 21.3 940 24.2L960 27L960 0L940 0C920 0 880 0 840 0C800 0 760 0 720 0C680 0 640 0 600 0C560 0 520 0 480 0C440 0 400 0 360 0C320 0 280 0 240 0C200 0 160 0 120 0C80 0 40 0 20 0L0 0Z" fill="#518ec1"></path></svg>