<svg id="visual" viewBox="0 0 960 540" width="960" height="540" xmlns="http://www.w3.org/2000/svg" xmlns:xlink="http://www.w3.org/1999/xlink" version="1.1"><rect x="0" y="0" width="960" height="540" fill="#f7f7f7"></rect><path d="M0 157L11.5 155.2C23 153.3 46 149.7 68.8 137.5C91.7 125.3 114.3 104.7 137.2 102.2C160 99.7 183 115.3 205.8 127.3C228.7 139.3 251.3 147.7 274.2 141.3C297 135 320 114 342.8 110.3C365.7 106.7 388.3 120.3 411.2 121.7C434 123 457 112 480 108.3C503 104.7 526 108.3 548.8 113.5C571.7 118.7 594.3 125.3 617.2 123.8C640 122.3 663 112.7 685.8 109.5C708.7 106.3 731.3 109.7 754.2 112C777 114.3 800 115.7 822.8 119.7C845.7 123.7 868.3 130.3 891.2 121C914 111.7 937 86.3 948.5 73.7L960 61L960 0L948.5 0C937 0 914 0 891.2 0C868.3 0 845.7 0 822.8 0C800 0 777 0 754.2 0C731.3 0 708.7 0 685.8 0C663 0 640 0 617.2 0C594.3 0 571.7 0 548.8 0C526 0 503 0 480 0C457 0 434 0 411.2 0C388.3 0 365.7 0 342.8 0C320 0 297 0 274.2 0C251.3 0 228.7 0 205.8 0C183 0 160 0 137.2 0C114.3 0 91.7 0 68.8 0C46 0 23 0 11.5 0L0 0Z" fill="#f7f7f7"></path><path d="M0 103L11.5 102.3C23 101.7 46 100.3 68.8 93.3C91.7 86.3 114.3 73.7 137.2 78.3C160 83 183 105 205.8 111.5C228.7 118 251.3 109 274.2 96.8C297 84.7 320 69.3 342.8 66.7C365.7 64 388.3 74 411.2 75.3C434 76.7 457 69.3 480 63.2C503 57 526 52 548.8 49.5C571.7 47 594.3 47 617.2 51C640 55 663 63 685.8 69.3C708.7 75.7 731.3 80.3 754.2 85.8C777 91.3 800 97.7 822.8 91C845.7 84.3 868.3 64.7 891.2 60C914 55.3 937 65.7 948.5 70.8L960 76L960 0L948.5 0C937 0 914 0 891.2 0C868.3 0 845.7 0 822.8 0C800 0 777 0 754.2 0C731.3 0 708.7 0 685.8 0C663 0 640 0 617.2 0C594.3 0 571.7 0 548.8 0C526 0 503 0 480 0C457 0 434 0 411.2 0C388.3 0 365.7 0 342.8 0C320 0 297 0 274.2 0C251.3 0 228.7 0 205.8 0C183 0 160 0 137.2 0C114.3 0 91.7 0 68.8 0C46 0 23 0 11.5 0L0 0Z" fill="#c8d9fa"></path><path d="M0 34L11.5 43.8C23 53.7 46 73.3 68.8 82.7C91.7 92 114.3 91 137.2 90.8C160 90.7 183 91.3 205.8 85.8C228.7 80.3 251.3 68.7 274.2 68C297 67.3 320 77.7 342.8 83.7C365.7 89.7 388.3 91.3 411.2 90C434 88.7 457 84.3 480 75.3C503 66.3 526 52.7 548.8 54.5C571.7 56.3 594.3 73.7 617.2 78.5C640 83.3 663 75.7 685.8 67.3C708.7 59 731.3 50 754.2 51.2C777 52.3 800 63.7 822.8 62.7C845.7 61.7 868.3 48.3 891.2 45C914 41.7 937 48.3 948.5 51.7L960 55L960 0L948.5 0C937 0 914 0 891.2 0C868.3 0 845.7 0 822.8 0C800 0 777 0 754.2 0C731.3 0 708.7 0 685.8 0C663 0 640 0 617.2 0C594.3 0 571.7 0 548.8 0C526 0 503 0 480 0C457 0 434 0 411.2 0C388.3 0 365.7 0 342.8 0C320 0 297 0 274.2 0C251.3 0 228.7 0 205.8 0C183 0 160 0 137.2 0C114.3 0 91.7 0 68.8 0C46 0 23 0 11.5 0L0 0Z" fill="#93bcfc"></path><path d="M0 52L11.5 49.3C23 46.7 46 41.3 68.8 36.7C91.7 32 114.3 28 137.2 26.2C160 24.3 183 24.7 205.8 30.2C228.7 35.7 251.3 46.3 274.2 47.2C297 48 320 39 342.8 33.8C365.7 28.7 388.3 27.3 411.2 31.3C434 35.3 457 44.7 480 46.5C503 48.3 526 42.7 548.8 37.8C571.7 33 594.3 29 617.2 28.7C640 28.3 663 31.7 685.8 36.5C708.7 41.3 731.3 47.7 754.2 48.3C777 49 800 44 822.8 44.3C845.7 44.7 868.3 50.3 891.2 49.3C914 48.3 937 40.7 948.5 36.8L960 33L960 0L948.5 0C937 0 914 0 891.2 0C868.3 0 845.7 0 822.8 0C800 0 777 0 754.2 0C731.3 0 708.7 0 685.8 0C663 0 640 0 617.2 0C594.3 0 571.7 0 548.8 0C526 0 503 0 480 0C457 0 434 0 411.2 0C388.3 0 365.7 0 342.8 0C320 0 297 0 274.2 0C251.3 0 228.7 0 205.8 0C183 0 160 0 137.2 0C114.3 0 91.7 0 68.8 0C46 0 23 0 11.5 0L0 0Z" fill="#49a0fd"></path></svg>